<svg xmlns="http://www.w3.org/2000/svg" xmlns:xlink="http://www.w3.org/1999/xlink" aria-hidden="true" role="img" class="iconify iconify--logos" width="31.88" height="32" preserveAspectRatio="xMidYMid meet" viewBox="0 0 256 257"><defs><linearGradient id="IconifyId1813088fe1fbc01fb466" x1="-.828%" x2="57.636%" y1="7.652%" y2="78.411%" gradientUnits="objectBoundingBox"><stop offset="0%" stop-color="#41D1FF"></stop><stop offset="100%" stop-color="#BD34FE"></stop></linearGradient><linearGradient id="IconifyId1813088fe1fbc01fb467" x1="43.376%" x2="50.316%" y1="2.242%" y2="89.03%" gradientUnits="objectBoundingBox"><stop offset="0%" stop-color="#FFBD4F"></stop><stop offset="100%" stop-color="#FF980E"></stop></linearGradient></defs><path fill="url(#IconifyId1813088fe1fbc01fb466)" d="M255.153 37.938L134.897 252.976c-2.483 4.44-8.862 4.466-11.382.048L.875 37.958c-2.746-4.814 1.371-10.646 6.827-9.67l120.385 21.517a6.537 6.537 0 0 0 2.322-.004l117.867-21.483c5.438-.991 9.574 4.796 6.877 9.61Z"></path><path fill="url(#IconifyId1813088fe1fbc01fb467)" d="M185.432.063L96.44 0C90.68 0 85.5 4.204 84.61 9.89L64.846 127.38l108.61 19.788c4.15.756 8.476-1.646 9.597-5.622l17.98-119.917A6.528 6.528 0 0 0 185.432.063Z"></path></svg>
